<svg width="91" height="91" viewBox="0 0 91 91" fill="none" xmlns="http://www.w3.org/2000/svg">
<path d="M59.4988 62.1832H17.1686C15.5161 62.1793 13.9098 61.6367 12.5934 60.6378C11.277 59.6388 10.3221 58.2379 9.87347 56.6474L1.8048 27.8307C1.48888 26.7041 1.43795 25.5197 1.65598 24.3701C1.87402 23.2205 2.3551 22.137 3.0616 21.2043C3.7681 20.2716 4.68083 19.5151 5.72839 18.9938C6.77595 18.4726 7.92991 18.2009 9.09997 18.1999H65.7626L67.8253 7.91687C68.0989 6.54098 68.8408 5.30242 69.9248 4.412C71.0087 3.52157 72.3678 3.03433 73.7706 3.0332H80.3833V9.09987H75.8181C75.2396 9.10424 74.6801 9.30689 74.2329 9.67399C73.7858 10.0411 73.4781 10.5504 73.3611 11.117L63.973 58.073L71.7231 64.5644C72.8608 65.5185 73.6775 66.7994 74.0625 68.2334C74.4476 69.6674 74.3824 71.1851 73.8758 72.5808C73.3692 73.9765 72.4456 75.1827 71.2304 76.0358C70.0151 76.8889 68.5669 77.3476 67.0821 77.3499H9.29713C8.55627 77.3663 7.83286 77.1238 7.2515 76.6643C6.67014 76.2047 6.26722 75.5569 6.11214 74.8322C6.03701 74.3968 6.05794 73.9502 6.17345 73.5236C6.28895 73.0971 6.49625 72.701 6.78083 72.363C7.06541 72.0249 7.42042 71.7532 7.82101 71.5666C8.22159 71.3801 8.65809 71.2834 9.09997 71.2832H64.6706C65.0951 71.2824 65.509 71.1509 65.8562 70.9066C66.2033 70.6624 66.4669 70.3172 66.611 69.9179C66.7551 69.5187 66.7728 69.0847 66.6618 68.675C66.5507 68.2654 66.3162 67.8998 65.9901 67.628L59.4988 62.1832ZM39.4333 54.5999C39.4333 55.0021 39.5931 55.3879 39.8775 55.6723C40.162 55.9567 40.5477 56.1165 40.95 56.1165H44.1805C44.5459 56.1165 44.899 55.9845 45.1749 55.7449C45.4507 55.5052 45.6308 55.174 45.682 54.8122L47.2138 44.1955C47.2422 43.9809 47.2246 43.7627 47.1623 43.5554C47.1 43.3481 46.9944 43.1563 46.8525 42.9929C46.7105 42.8294 46.5355 42.698 46.3389 42.6072C46.1424 42.5165 45.9288 42.4685 45.7123 42.4665H40.95C40.5477 42.4665 40.162 42.6263 39.8775 42.9108C39.5931 43.1952 39.4333 43.581 39.4333 43.9832V54.5999ZM16.8653 25.5709C16.8141 25.2091 16.6341 24.8779 16.3582 24.6382C16.0823 24.3986 15.7292 24.2666 15.3638 24.2665H9.09997C8.86629 24.2644 8.63551 24.3184 8.42702 24.424C8.21853 24.5296 8.03841 24.6836 7.9018 24.8732C7.7524 25.0543 7.65058 25.2698 7.60556 25.5003C7.56053 25.7307 7.57374 25.9687 7.64397 26.1927L10.192 35.2927C10.2811 35.6106 10.4715 35.8907 10.7343 36.0905C10.9971 36.2903 11.3178 36.3989 11.648 36.3999H16.6681C16.8852 36.3998 17.0998 36.3532 17.2973 36.2631C17.4948 36.173 17.6707 36.0416 17.813 35.8777C17.9554 35.7138 18.0609 35.5212 18.1224 35.313C18.1839 35.1048 18.2 34.8858 18.1696 34.6709L16.8653 25.5709ZM19.4588 43.7709C19.4076 43.4091 19.2276 43.0779 18.9517 42.8382C18.6758 42.5986 18.3227 42.4666 17.9573 42.4665H14.196C13.9622 42.4672 13.7318 42.5219 13.5227 42.6263C13.3135 42.7308 13.1314 42.8822 12.9904 43.0686C12.8494 43.2551 12.7535 43.4716 12.7101 43.7013C12.6666 43.931 12.6769 44.1676 12.74 44.3927L15.7126 55.0094C15.8018 55.3272 15.9922 55.6073 16.2549 55.8071C16.5177 56.007 16.8385 56.1156 17.1686 56.1165H19.4891C19.7062 56.1165 19.9208 56.0699 20.1183 55.9798C20.3158 55.8897 20.4917 55.7582 20.634 55.5943C20.7764 55.4304 20.8819 55.2379 20.9434 55.0297C21.0049 54.8215 21.021 54.6025 20.9906 54.3875L19.4588 43.7709ZM33.3666 25.7832C33.3666 25.381 33.2068 24.9952 32.9224 24.7108C32.638 24.4263 32.2522 24.2665 31.85 24.2665H24.4941C24.277 24.2666 24.0625 24.3132 23.865 24.4033C23.6674 24.4934 23.4916 24.6248 23.3492 24.7887C23.2069 24.9527 23.1014 25.1452 23.0399 25.3534C22.9783 25.5616 22.9622 25.7806 22.9926 25.9955L24.297 35.0955C24.3481 35.4574 24.5282 35.7885 24.8041 36.0282C25.0799 36.2678 25.433 36.3998 25.7985 36.3999H31.85C32.2522 36.3999 32.638 36.2401 32.9224 35.9557C33.2068 35.6712 33.3666 35.2854 33.3666 34.8832V25.7832ZM33.3666 43.9832C33.3666 43.581 33.2068 43.1952 32.9224 42.9108C32.638 42.6263 32.2522 42.4665 31.85 42.4665H27.0876C26.8712 42.4685 26.6576 42.5165 26.461 42.6072C26.2645 42.698 26.0894 42.8294 25.9475 42.9929C25.8055 43.1563 25.6999 43.3481 25.6376 43.5554C25.5753 43.7627 25.5578 43.9809 25.5861 44.1955L27.118 54.8122C27.1691 55.174 27.3492 55.5052 27.6251 55.7449C27.9009 55.9845 28.254 56.1165 28.6195 56.1165H31.85C32.2522 56.1165 32.638 55.9567 32.9224 55.6723C33.2068 55.3879 33.3666 55.0021 33.3666 54.5999V43.9832ZM48.3058 24.2665H40.95C40.5477 24.2665 40.162 24.4263 39.8775 24.7108C39.5931 24.9952 39.4333 25.381 39.4333 25.7832V34.8832C39.4333 35.2854 39.5931 35.6712 39.8775 35.9557C40.162 36.2401 40.5477 36.3999 40.95 36.3999H47.0015C47.3669 36.3998 47.72 36.2678 47.9959 36.0282C48.2717 35.7885 48.4518 35.4574 48.503 35.0955L49.8073 25.9955C49.8377 25.7806 49.8216 25.5616 49.7601 25.3534C49.6985 25.1452 49.5931 24.9527 49.4507 24.7887C49.3084 24.6248 49.1325 24.4934 48.935 24.4033C48.7375 24.3132 48.5229 24.2666 48.3058 24.2665ZM53.3411 43.7709L51.8093 54.3875C51.7789 54.6025 51.795 54.8215 51.8565 55.0297C51.9181 55.2379 52.0236 55.4304 52.1659 55.5943C52.3082 55.7582 52.4841 55.8897 52.6816 55.9798C52.8792 56.0699 53.0937 56.1165 53.3108 56.1165H56.9356C57.2853 56.1166 57.6242 55.9959 57.895 55.7748C58.1659 55.5537 58.352 55.2458 58.422 54.9032L60.5453 44.2865C60.5903 44.0662 60.5857 43.8385 60.5318 43.6201C60.478 43.4018 60.3763 43.1981 60.234 43.0239C60.0917 42.8496 59.9125 42.7093 59.7092 42.6129C59.506 42.5165 59.2839 42.4665 59.059 42.4665H54.8426C54.4772 42.4666 54.1241 42.5986 53.8482 42.8382C53.5724 43.0779 53.3923 43.4091 53.3411 43.7709ZM64.1853 26.0865C64.2303 25.8662 64.2257 25.6385 64.1718 25.4201C64.118 25.2018 64.0163 24.9981 63.874 24.8239C63.7317 24.6496 63.5525 24.5093 63.3492 24.4129C63.146 24.3165 62.9239 24.2665 62.699 24.2665H57.4361C57.0707 24.2666 56.7176 24.3986 56.4417 24.6382C56.1659 24.8779 55.9858 25.2091 55.9346 25.5709L54.6303 34.6709C54.5999 34.8858 54.616 35.1048 54.6775 35.313C54.7391 35.5212 54.8446 35.7138 54.9869 35.8777C55.1292 36.0416 55.3051 36.173 55.5026 36.2631C55.7002 36.3532 55.9147 36.3998 56.1318 36.3999H60.879C61.2286 36.3999 61.5675 36.2792 61.8384 36.0581C62.1092 35.837 62.2954 35.5291 62.3653 35.1865L64.1853 26.0865Z" fill="#A8A8A8"/>
<path d="M57.6333 89.4829C54.2828 89.4829 51.5666 86.7668 51.5666 83.4163C51.5666 80.0657 54.2828 77.3496 57.6333 77.3496C60.9838 77.3496 63.7 80.0657 63.7 83.4163C63.7 86.7668 60.9838 89.4829 57.6333 89.4829Z" fill="#4F5DC4"/>
<path d="M21.2333 89.4829C17.8827 89.4829 15.1666 86.7668 15.1666 83.4163C15.1666 80.0657 17.8827 77.3496 21.2333 77.3496C24.5838 77.3496 27.2999 80.0657 27.2999 83.4163C27.2999 86.7668 24.5838 89.4829 21.2333 89.4829Z" fill="#4F5DC4"/>
<path d="M80.3833 1.5166H86.4499C88.1252 1.5166 89.4833 2.87467 89.4833 4.54993V6.0666C89.4833 7.74187 88.1252 9.09993 86.4499 9.09993H80.3833C78.708 9.09993 77.3499 7.74187 77.3499 6.0666V4.54993C77.3499 2.87467 78.708 1.5166 80.3833 1.5166Z" fill="#4F5DC4"/>
</svg>
