<svg width="130" height="123" viewBox="0 0 130 123" fill="none" xmlns="http://www.w3.org/2000/svg">
<path d="M51.2849 122.173C44.0832 122.173 38.2239 116.292 38.2239 109.064C38.2239 101.837 44.0832 95.958 51.2849 95.958C58.4866 95.958 64.3459 101.837 64.3459 109.064C64.3459 116.292 58.4866 122.173 51.2849 122.173ZM51.2849 104.185C48.6043 104.185 46.4216 106.374 46.4216 109.064C46.4216 111.757 48.6022 113.945 51.2849 113.945C53.9676 113.945 56.1482 111.757 56.1482 109.064C56.1482 106.374 53.9676 104.185 51.2849 104.185Z" fill="#FFF8EB"/>
<path d="M96.688 122.173C89.4863 122.173 83.629 116.292 83.629 109.064C83.629 101.837 89.4863 95.958 96.688 95.958C103.89 95.958 109.749 101.837 109.749 109.064C109.749 116.292 103.888 122.173 96.688 122.173ZM96.688 104.185C94.0073 104.185 91.8267 106.374 91.8267 109.064C91.8267 111.757 94.0073 113.945 96.688 113.945C99.3707 113.945 101.551 111.757 101.551 109.064C101.551 106.374 99.3686 104.185 96.688 104.185Z" fill="#FFF8EB"/>
<path d="M106.251 85.7968H41.8596C35.5945 85.7968 30.2434 81.5165 28.8457 75.387L15.4814 16.8137C15.3051 16.0403 14.7723 15.378 14.055 15.0448L2.96962 9.88819C0.403731 8.6952 -0.713209 5.6387 0.475461 3.06145C1.66413 0.48625 4.71163 -0.634742 7.27752 0.558241L18.3629 5.7148C21.935 7.3747 24.5931 10.6657 25.4703 14.5182L38.8346 73.0957C39.1584 74.519 40.4024 75.5146 41.8596 75.5146H106.251C107.702 75.5146 108.944 74.5252 109.276 73.106L119.666 28.2395C119.963 26.9643 119.422 26.0366 119.076 25.5985C118.728 25.1584 117.949 24.422 116.645 24.422H40.8164C37.9862 24.422 35.6929 22.1204 35.6929 19.2798C35.6929 16.4393 37.9862 14.1377 40.8164 14.1377H116.645C120.742 14.1377 124.55 15.9827 127.099 19.2017C129.649 22.4207 130.575 26.5632 129.649 30.5679L119.256 75.4364C117.84 81.535 112.493 85.7968 106.251 85.7968Z" fill="#FFF8EB"/>
<path d="M85.7953 36.8101C84.4139 36.8101 83.0306 37.3202 82.0161 38.3404L70.2114 50.1879L66.3462 46.3087C64.3439 44.3032 60.8435 44.3073 58.8473 46.3087C56.7938 48.3676 56.804 51.7779 58.8473 53.8347L66.4958 61.5069C67.4939 62.5127 68.828 63.066 70.2442 63.066C71.7116 63.066 73.0765 62.5085 74.0807 61.4925C74.0807 61.4925 89.5293 45.9857 89.5785 45.9364C91.6382 43.8692 91.6341 40.3993 89.5785 38.3424C88.562 37.3202 87.1786 36.8101 85.7953 36.8101Z" fill="#FFF8EB"/>
</svg>
