<svg width="79" height="79" viewBox="0 0 79 79" fill="none" xmlns="http://www.w3.org/2000/svg">
<path d="M71.5938 39.5C71.5938 42.2403 68.2363 44.4375 67.545 47.0297C66.8538 49.6219 68.6313 53.2756 67.2981 55.5469C65.965 57.8181 61.9162 58.1391 60.04 60.04C58.1637 61.9409 57.8675 65.965 55.5469 67.2981C53.2263 68.6313 49.6219 66.8538 47.0297 67.545C44.4375 68.2363 42.2403 71.5938 39.5 71.5938C36.7597 71.5938 34.5625 68.2363 32.0938 67.545C29.625 66.8538 25.8478 68.6313 23.5766 67.2981C21.3053 65.965 20.9844 61.9162 19.0834 60.04C17.1825 58.1637 13.1584 57.8675 11.8253 55.5469C10.4922 53.2263 12.2697 49.6219 11.5784 47.0297C10.8872 44.4375 7.40625 42.2403 7.40625 39.5C7.40625 36.7597 10.7637 34.5625 11.455 32.0938C12.1462 29.625 10.3687 25.8478 11.7019 23.5766C13.035 21.3053 17.0837 20.8609 18.96 18.96C20.8362 17.0591 21.1325 13.035 23.4531 11.7019C25.7737 10.3687 29.3781 12.1462 31.9703 11.455C34.5625 10.7637 36.7597 7.40625 39.5 7.40625C42.2403 7.40625 44.4375 10.7637 47.0297 11.455C49.6219 12.1462 53.2756 10.3687 55.5469 11.7019C57.8181 13.035 58.1391 17.0837 60.04 18.96C61.9409 20.8362 65.965 21.1325 67.2981 23.4531C68.6313 25.7737 66.8538 29.3781 67.545 31.9703C68.2363 34.5625 71.5938 36.7597 71.5938 39.5Z" fill="#109138"/>
<path d="M39.5 60.4844C51.0894 60.4844 60.4844 51.0894 60.4844 39.5C60.4844 27.9107 51.0894 18.5156 39.5 18.5156C27.9107 18.5156 18.5156 27.9107 18.5156 39.5C18.5156 51.0894 27.9107 60.4844 39.5 60.4844Z" fill="#20BF55"/>
<path d="M37.3522 45.351C37.109 45.3521 36.8679 45.3047 36.6432 45.2114C36.4185 45.1181 36.2148 44.9809 36.0438 44.8078L30.2916 39.1544C29.9449 38.8072 29.7501 38.3366 29.7501 37.846C29.7501 37.3553 29.9449 36.8847 30.2916 36.5375C30.6388 36.1908 31.1094 35.996 31.6001 35.996C32.0907 35.996 32.5613 36.1908 32.9085 36.5375L37.3522 40.9319L46.0916 32.316C46.4419 31.9689 46.9157 31.7753 47.4088 31.7776C47.9019 31.7799 48.3738 31.978 48.7208 32.3283C49.0679 32.6786 49.2615 33.1524 49.2592 33.6455C49.2569 34.1385 49.0588 34.6105 48.7085 34.9575L38.636 44.8325C38.4693 45.0028 38.2692 45.1367 38.0483 45.2259C37.8274 45.3151 37.5904 45.3577 37.3522 45.351Z" fill="#EDEBEA"/>
</svg>
