<svg width="130" height="130" viewBox="0 0 130 130" fill="none" xmlns="http://www.w3.org/2000/svg">
<path d="M67.1125 34.7344H34.6125C33.535 34.7344 32.5017 35.1624 31.7399 35.9243C30.978 36.6861 30.55 37.7194 30.55 38.7969C30.55 39.8743 30.978 40.9076 31.7399 41.6695C32.5017 42.4314 33.535 42.8594 34.6125 42.8594H67.1125C68.1899 42.8594 69.2232 42.4314 69.9851 41.6695C70.747 40.9076 71.175 39.8743 71.175 38.7969C71.175 37.7194 70.747 36.6861 69.9851 35.9243C69.2232 35.1624 68.1899 34.7344 67.1125 34.7344Z" fill="#FFF8EB"/>
<path d="M67.1125 56.4688H34.6125C33.535 56.4688 32.5017 56.8968 31.7399 57.6586C30.978 58.4205 30.55 59.4538 30.55 60.5312C30.55 61.6087 30.978 62.642 31.7399 63.4039C32.5017 64.1657 33.535 64.5938 34.6125 64.5938H67.1125C68.1899 64.5938 69.2232 64.1657 69.9851 63.4039C70.747 62.642 71.175 61.6087 71.175 60.5312C71.175 59.4538 70.747 58.4205 69.9851 57.6586C69.2232 56.8968 68.1899 56.4688 67.1125 56.4688Z" fill="#FFF8EB"/>
<path d="M67.1125 78.6904H34.6125C33.535 78.6904 32.5017 79.1184 31.7399 79.8803C30.978 80.6422 30.55 81.6755 30.55 82.7529C30.55 83.8304 30.978 84.8637 31.7399 85.6255C32.5017 86.3874 33.535 86.8154 34.6125 86.8154H67.1125C68.1899 86.8154 69.2232 86.3874 69.9851 85.6255C70.747 84.8637 71.175 83.8304 71.175 82.7529C71.175 81.6755 70.747 80.6422 69.9851 79.8803C69.2232 79.1184 68.1899 78.6904 67.1125 78.6904Z" fill="#FFF8EB"/>
<path d="M115.131 8.125C112.383 5.61028 108.821 4.16832 105.097 4.0625H24.9031C22.8191 4.06782 20.7565 4.48425 18.8336 5.28793C16.9108 6.09162 15.1654 7.26678 13.6974 8.74609C12.2294 10.2254 11.0677 11.9798 10.2788 13.9088C9.48988 15.8378 9.08931 17.9035 9.1 19.9875V119.072C9.09734 120.089 9.36537 121.088 9.87657 121.967C10.3878 122.846 11.1237 123.573 12.0088 124.073C12.8939 124.574 13.8962 124.829 14.9129 124.814C15.9295 124.799 16.9239 124.514 17.7938 123.987L32.7438 115.009C32.9693 114.869 33.2296 114.794 33.4953 114.794C33.761 114.794 34.0213 114.869 34.2469 115.009L50.8625 124.962C51.7364 125.519 52.7512 125.815 53.7875 125.816C54.8303 125.81 55.8532 125.53 56.7531 125.003L73.45 115.009C73.6755 114.869 73.9359 114.794 74.2016 114.794C74.4672 114.794 74.7276 114.869 74.9531 115.009L89.8219 123.987C90.6946 124.506 91.6911 124.78 92.7063 124.78C93.7214 124.78 94.7179 124.506 95.5906 123.987C96.4645 123.488 97.1913 122.766 97.6977 121.896C98.2041 121.026 98.4722 120.038 98.475 119.031V50.5375H111.231C113.792 50.5268 116.245 49.5047 118.056 47.6938C119.867 45.8828 120.889 43.4298 120.9 40.8687V19.9875C120.863 17.7089 120.328 15.466 119.331 13.4165C118.334 11.3671 116.901 9.5609 115.131 8.125ZM90.35 115.009L79.1375 108.062C77.6438 107.176 75.9387 106.708 74.2016 106.708C72.4644 106.708 70.7594 107.176 69.2656 108.062L53.8281 117.325L38.4313 108.022C36.9197 107.118 35.19 106.644 33.4287 106.651C31.6675 106.658 29.9416 107.146 28.4375 108.062L17.225 114.847V19.9875C17.2088 18.969 17.3955 17.9574 17.7741 17.0118C18.1527 16.0661 18.7157 15.2052 19.4303 14.4793C20.1449 13.7533 20.9968 13.1769 21.9364 12.7834C22.876 12.3899 23.8845 12.1874 24.9031 12.1875H92.0156C90.9428 14.2313 90.3719 16.5012 90.35 18.8094V114.684V115.009Z" fill="#FFF8EB"/>
</svg>
