<svg width="130" height="130" viewBox="0 0 130 130" fill="none" xmlns="http://www.w3.org/2000/svg">
<path d="M43.9258 124.922C43.9258 127.727 41.6525 130 38.8477 130H27.168C15.9673 130 6.85547 120.888 6.85547 109.688V20.3125C6.85547 9.11186 15.9673 0 27.168 0H89.6011C100.801 0 109.914 9.11186 109.914 20.3125V50.5273C109.914 53.3322 107.639 55.6055 104.836 55.6055C102.031 55.6055 99.7574 53.3322 99.7574 50.5273V20.3125C99.7574 14.7127 95.201 10.1562 89.6011 10.1562H27.168C21.5681 10.1562 17.0117 14.7127 17.0117 20.3125V109.688C17.0117 115.287 21.5681 119.844 27.168 119.844H38.8477C41.6525 119.844 43.9258 122.117 43.9258 124.922ZM89.6001 35.5469C89.6001 32.742 87.3269 30.4688 84.522 30.4688H32.2173C29.4135 30.4688 27.1392 32.742 27.1392 35.5469C27.1392 38.3517 29.4135 40.625 32.2173 40.625H84.522C87.3269 40.625 89.6001 38.3517 89.6001 35.5469ZM69.3164 55.8594C69.3164 53.0545 67.0432 50.7812 64.2383 50.7812H32.2173C29.4135 50.7812 27.1392 53.0545 27.1392 55.8594C27.1392 58.6642 29.4135 60.9375 32.2173 60.9375H64.2383C67.0432 60.9375 69.3164 58.6642 69.3164 55.8594ZM32.2173 71.0938C29.4135 71.0938 27.1392 73.367 27.1392 76.1719C27.1392 78.9767 29.4135 81.25 32.2173 81.25H53.3203C56.1252 81.25 58.3984 78.9767 58.3984 76.1719C58.3984 73.367 56.1252 71.0938 53.3203 71.0938H32.2173ZM120.811 126.222C118.857 128.623 115.974 130 112.9 130H63.3109C60.2204 130 57.3283 128.624 55.3764 126.226C53.4126 123.813 52.6498 120.678 53.2836 117.625C54.9241 109.722 59.2693 102.532 65.5177 97.377C67.8842 95.4251 70.4848 93.8005 73.242 92.531C70.1694 89.0408 68.3008 84.4675 68.3008 79.4637C68.3008 68.5428 77.1845 59.659 88.1055 59.659C99.0264 59.659 107.91 68.5428 107.91 79.4637C107.91 84.4675 106.042 89.0408 102.969 92.531C105.726 93.8005 108.327 95.4241 110.693 97.377C116.817 102.428 121.111 109.436 122.825 117.151C122.865 117.285 122.899 117.42 122.927 117.558C123.564 120.628 122.792 123.786 120.811 126.222ZM78.457 79.4637C78.457 84.7839 82.7853 89.1122 88.1055 89.1122C93.4256 89.1122 97.7539 84.7839 97.7539 79.4637C97.7539 74.1436 93.4256 69.8153 88.1055 69.8153C82.7853 69.8153 78.457 74.1436 78.457 79.4637ZM112.985 119.7C112.984 119.697 112.983 119.693 112.983 119.69C110.544 107.946 100.082 99.4212 88.1055 99.4212C76.1292 99.4212 65.6655 107.946 63.2276 119.69C63.2048 119.804 63.2832 119.841 63.2832 119.842C63.2851 119.842 63.2941 119.844 63.3109 119.844H112.9C112.903 119.841 112.971 119.789 112.985 119.7Z" fill="#FFF8EB"/>
</svg>
