<svg width="41" height="41" viewBox="0 0 41 41" fill="none" xmlns="http://www.w3.org/2000/svg">
<path d="M7.43445 11.2026H33.5655C33.9232 11.2026 34.2662 11.3447 34.5191 11.5976C34.772 11.8505 34.9141 12.1935 34.9141 12.5512V17.0644H6.08594V12.5512C6.08594 12.1935 6.22801 11.8505 6.48091 11.5976C6.7338 11.3447 7.0768 11.2026 7.43445 11.2026Z" fill="#EF5656"/>
<path d="M7.28998 17.0643H33.71V33.5655C33.71 33.9232 33.5679 34.2662 33.315 34.5191C33.0621 34.772 32.7191 34.9141 32.3615 34.9141H8.63849C8.28084 34.9141 7.93784 34.772 7.68495 34.5191C7.43205 34.2662 7.28998 33.9232 7.28998 33.5655V17.0643Z" fill="#E54E4E"/>
<path d="M20.5 11.7632H14.8625C14.0353 11.7632 13.242 11.4346 12.6571 10.8497C12.0722 10.2648 11.7436 9.47146 11.7436 8.64428C11.7436 7.8171 12.0722 7.0238 12.6571 6.4389C13.242 5.854 14.0353 5.5254 14.8625 5.5254C16.1373 5.52318 17.3798 5.92587 18.411 6.67541C19.4422 7.42495 20.2086 8.4826 20.5999 9.69587L21.033 11.0296C21.0603 11.1138 21.0674 11.2031 21.0536 11.2905C21.0397 11.3779 21.0054 11.4607 20.9534 11.5323C20.9014 11.6038 20.8332 11.662 20.7544 11.7022C20.6756 11.7423 20.5884 11.7632 20.5 11.7632ZM14.8625 6.64649C14.3326 6.64649 13.8245 6.85697 13.4498 7.23163C13.0752 7.60629 12.8647 8.11444 12.8647 8.64428C12.8647 9.17413 13.0752 9.68227 13.4498 10.0569C13.8245 10.4316 14.3326 10.6421 14.8625 10.6421H19.7312L19.5365 10.0421C19.2176 9.05398 18.5931 8.19265 17.753 7.58236C16.913 6.97207 15.9008 6.64436 14.8625 6.64649Z" fill="#FFB32C"/>
<path d="M26.1375 11.7632H20.5C20.4115 11.7632 20.3243 11.7423 20.2455 11.7022C20.1667 11.662 20.0985 11.6038 20.0465 11.5323C19.9945 11.4607 19.9602 11.3779 19.9464 11.2905C19.9326 11.2031 19.9396 11.1138 19.967 11.0296L20.3997 9.69587C20.7911 8.4826 21.5577 7.42497 22.5889 6.67544C23.6201 5.92591 24.8627 5.52321 26.1375 5.5254C26.5471 5.5254 26.9526 5.60607 27.331 5.76281C27.7094 5.91955 28.0533 6.14928 28.3429 6.4389C28.6325 6.72851 28.8622 7.07234 29.019 7.45074C29.1757 7.82914 29.2564 8.2347 29.2564 8.64428C29.2564 9.05386 29.1757 9.45943 29.019 9.83783C28.8622 10.2162 28.6325 10.5601 28.3429 10.8497C28.0533 11.1393 27.7094 11.369 27.331 11.5258C26.9526 11.6825 26.5471 11.7632 26.1375 11.7632ZM21.2707 10.6421H26.1375C26.6673 10.6421 27.1755 10.4316 27.5501 10.0569C27.9248 9.68227 28.1353 9.17413 28.1353 8.64428C28.1353 8.11444 27.9248 7.60629 27.5501 7.23163C27.1755 6.85697 26.6673 6.64649 26.1375 6.64649C25.0995 6.64474 24.0878 6.9726 23.2482 7.58279C22.4085 8.19299 21.7843 9.05403 21.4654 10.0418L21.2707 10.6421Z" fill="#FFB32C"/>
<path d="M16.4016 17.0643H24.5983V34.9141H16.4016V17.0643Z" fill="#FFB32C"/>
<path d="M16.4016 11.2026H24.5984V17.0644H16.4016V11.2026Z" fill="#FECD1A"/>
</svg>
