<svg width="79" height="79" viewBox="0 0 79 79" fill="none" xmlns="http://www.w3.org/2000/svg">
<path d="M42.8964 53.1862C44.7776 49.6411 46.3298 45.8756 47.5568 41.8812C64.5702 45.4004 69.6885 27.2149 69.6885 27.2149C69.6885 27.2149 55.45 24.8795 49.1436 35.7642C49.6534 33.388 50.0644 30.9409 50.3711 28.4154C62.2181 15.9013 49.5756 1.97876 49.5756 1.97876C49.5756 1.97876 37.3195 15.8784 49.1294 28.3845C48.6115 32.5931 47.8043 36.5857 46.7106 40.3752C45.5176 24.1679 27.5148 23.2939 27.5148 23.2939C27.5148 23.2939 28.6998 41.9558 46.1329 42.2743C44.3585 47.8117 41.9422 52.8967 38.8631 57.5491C38.2934 40.4586 19.6241 39.5476 19.6241 39.5476C19.6241 39.5476 20.8072 58.1786 38.1996 58.5267C34.8933 63.3124 30.8686 67.6315 26.1101 71.5123C27.8129 54.3903 9.33065 51.0952 9.33065 51.0952C9.33065 51.0952 8.14009 69.6071 25.1763 72.2598C23.4031 73.6571 21.5368 74.9988 19.5667 76.2801C19.2809 76.4659 19.2001 76.8485 19.3859 77.1343C19.5044 77.3157 19.7019 77.4151 19.9037 77.4151C20.0191 77.4151 20.1357 77.383 20.2394 77.3151C22.3835 75.9203 24.4098 74.4582 26.3249 72.9294C39.4025 84.6862 52.9843 71.2957 52.9843 71.2957C52.9843 71.2957 42.431 62.7378 31.858 68.0092C34.9359 64.9541 37.6373 61.667 39.9641 58.136C55.3821 66.457 65.4534 50.3181 65.4534 50.3181C65.4534 50.3181 52.0301 43.8883 42.8964 53.1862Z" fill="#2BB673"/>
</svg>
