<svg width="47" height="47" viewBox="0 0 47 47" fill="none" xmlns="http://www.w3.org/2000/svg">
<path d="M42.2999 13.4496V33.5499C42.2999 34.2941 41.9945 34.9756 41.5088 35.4691C41.0153 35.9548 40.3416 36.2603 39.5896 36.2603H7.41812C6.67395 36.2603 5.99245 35.9548 5.50678 35.4769C5.00545 34.9834 4.69995 34.3019 4.69995 33.5499V13.4496C4.69995 12.6976 5.00545 12.0161 5.50678 11.5226C5.99245 11.0448 6.67395 10.7393 7.41812 10.7393H39.5896C40.3416 10.7393 41.0153 11.0448 41.5088 11.5304C41.9945 12.0239 42.2999 12.7054 42.2999 13.4496Z" fill="#FFAE00"/>
<path d="M39.5896 37.0437H7.41813C6.50163 37.0437 5.60863 36.6756 4.95846 36.0332C4.28479 35.3752 3.91663 34.4901 3.91663 33.5501V13.4497C3.91663 12.5097 4.28479 11.6246 4.95846 10.9666C5.60863 10.3242 6.50946 9.95605 7.41813 9.95605H39.5896C40.514 9.95605 41.3913 10.3164 42.0571 10.9744C42.723 11.6481 43.0833 12.5254 43.0833 13.4497V33.5501C43.0833 34.4744 42.723 35.3517 42.065 36.0176C41.3913 36.6834 40.514 37.0437 39.5896 37.0437ZM7.41813 11.5227C6.91679 11.5227 6.41546 11.7264 6.05513 12.0789C5.68696 12.4471 5.48329 12.9327 5.48329 13.4497V33.5501C5.48329 34.0671 5.68696 34.5527 6.05513 34.9209C6.41546 35.2734 6.90896 35.4771 7.41813 35.4771H39.5896C40.0988 35.4771 40.5845 35.2734 40.9605 34.9131C41.313 34.5449 41.5166 34.0592 41.5166 33.5501V13.4497C41.5166 12.9406 41.313 12.4549 40.9526 12.0789C40.5923 11.7264 40.1066 11.5227 39.5896 11.5227H7.41813Z" fill="#FEFBEA"/>
<path d="M41.5088 11.5304L29.3202 23.4998L25.4035 27.3381C24.3538 28.3799 22.6618 28.3799 21.6043 27.3381L17.6955 23.4998L5.50684 11.5226C5.9925 11.0448 6.674 10.7393 7.41817 10.7393H39.5897C40.3417 10.7393 41.0153 11.0448 41.5088 11.5304Z" fill="#FFAE00"/>
<path d="M23.5078 28.8971C22.6227 28.8971 21.7297 28.5602 21.056 27.8944L4.95851 12.0789C4.80968 11.9301 4.72351 11.7342 4.72351 11.5227C4.72351 11.3112 4.80968 11.1154 4.95851 10.9666C5.60868 10.3242 6.50951 9.95605 7.41818 9.95605H39.5897C40.514 9.95605 41.3913 10.3164 42.0572 10.9744C42.206 11.1232 42.2922 11.3269 42.2922 11.5306C42.2922 11.7342 42.206 11.9379 42.0572 12.0867L25.9518 27.8944C25.2782 28.5681 24.393 28.8971 23.5078 28.8971ZM6.74451 11.6402L22.1527 26.7742C22.9047 27.5106 24.111 27.5106 24.8552 26.7742L40.2712 11.6402C40.0518 11.5619 39.8247 11.5149 39.5897 11.5149H7.41818C7.19101 11.5227 6.96384 11.5619 6.74451 11.6402Z" fill="#FEFBEA"/>
<path d="M5.50675 36.2607C5.30309 36.2607 5.09942 36.1823 4.95059 36.0257C4.64509 35.7202 4.65292 35.2188 4.95842 34.9212L17.1471 22.944C17.4526 22.6385 17.9539 22.6463 18.2516 22.9518C18.5571 23.2573 18.5493 23.7587 18.2438 24.0563L6.05509 36.0413C5.89842 36.1902 5.70259 36.2607 5.50675 36.2607Z" fill="#FEFBEA"/>
<path d="M41.5088 36.2606C41.3129 36.2606 41.1093 36.1823 40.9604 36.0335L28.7718 24.0641C28.4663 23.7586 28.4584 23.2651 28.7639 22.9596C29.0694 22.6541 29.5629 22.6463 29.8684 22.9518L42.0571 34.9211C42.3626 35.2266 42.3704 35.7201 42.0649 36.0256C41.9083 36.1823 41.7124 36.2606 41.5088 36.2606Z" fill="#FEFBEA"/>
</svg>
