<svg width="47" height="47" viewBox="0 0 47 47" fill="none" xmlns="http://www.w3.org/2000/svg">
<g clip-path="url(#clip0_193_87)">
<path d="M23.5 2.34961C14.4048 2.35994 7.03433 9.71889 7.02441 18.7999C7.02441 32.3121 20.7931 43.2632 23.5 44.579C26.2069 43.2632 39.9756 32.3121 39.9756 18.7999C39.9657 9.71889 32.5952 2.35994 23.5 2.34961ZM23.5 27.0246C18.9503 27.0246 15.262 23.3421 15.262 18.7999C15.262 14.2572 18.9503 10.5748 23.5 10.5748C28.0498 10.5748 31.738 14.2572 31.738 18.7999C31.7329 23.3404 28.0476 27.0199 23.5 27.0246Z" fill="#FFAE00"/>
<path d="M23.5 0C13.1067 0.0137695 4.6842 8.42265 4.67041 18.8001C4.67041 34.4393 21.3818 47.0001 23.5 47.0001C25.6182 47.0001 42.3295 34.4393 42.3295 18.8001C42.3158 8.42265 33.8933 0.0137695 23.5 0ZM23.5 44.5793C20.793 43.2634 7.02438 32.3124 7.02438 18.8001C7.02438 9.71483 14.4009 2.34986 23.5 2.34986C32.5991 2.34986 39.9756 9.71483 39.9756 18.8001C39.9756 32.3124 26.2069 43.2634 23.5 44.5793Z" fill="#FEFBEA"/>
<path d="M23.5 10.5752C18.9502 10.5752 15.262 14.2577 15.262 18.8003C15.262 23.3426 18.9502 27.0251 23.5 27.0251C28.0497 27.0251 31.738 23.3426 31.738 18.8003C31.7328 14.2598 28.0476 10.5804 23.5 10.5752ZM23.5 24.6752C20.25 24.6752 17.6159 22.0448 17.6159 18.8003C17.6159 15.5555 20.25 12.9251 23.5 12.9251C26.7499 12.9251 29.384 15.5555 29.384 18.8003C29.3832 22.0444 26.7491 24.6739 23.5 24.6752Z" fill="#FEFBEA"/>
<path d="M29.3841 18.8001C29.3841 22.0445 26.75 24.6749 23.5 24.6749C20.2501 24.6749 17.616 22.0445 17.616 18.8001C17.616 15.5552 20.2501 12.9248 23.5 12.9248C26.75 12.9248 29.3841 15.5552 29.3841 18.8001Z" fill="#AB5927"/>
</g>
<defs>
<clipPath id="clip0_193_87">
<rect width="47" height="47" fill="white"/>
</clipPath>
</defs>
</svg>
