<svg width="47" height="47" viewBox="0 0 47 47" fill="none" xmlns="http://www.w3.org/2000/svg">
<path d="M41.2202 31.715L36.5112 29.094C35.95 28.7816 35.302 28.6618 34.6662 28.7529C34.0304 28.844 33.442 29.1409 32.9911 29.5982L31.237 31.3769C31.237 31.3769 27.8913 34.7227 20.0843 26.9158C12.2773 19.109 15.5921 15.732 15.5921 15.732L17.2481 14.1659C17.7579 13.6837 18.0923 13.0454 18.1986 12.3518C18.3048 11.6583 18.1768 10.9491 17.8348 10.3364L15.2871 5.77228C15.0657 5.37572 14.7554 5.03588 14.3805 4.77948C14.0056 4.52308 13.5764 4.3571 13.1265 4.29457C12.6767 4.23205 12.2185 4.27468 11.7879 4.41913C11.3573 4.56358 10.9661 4.8059 10.6449 5.12706L7.04502 8.72785C5.66077 10.1121 4.76511 11.9096 4.49358 13.8483C4.22205 15.787 4.58944 17.7614 5.54014 19.4726C5.54014 19.4726 6.78314 24.0601 14.8614 32.1384C22.9397 40.2167 27.5272 41.4598 27.5272 41.4598C29.2385 42.4106 31.213 42.778 33.1518 42.5065C35.0906 42.235 36.8881 41.3393 38.2724 39.9549L41.8686 36.3589C42.19 36.0375 42.4324 35.646 42.5769 35.215C42.7213 34.7841 42.7637 34.3255 42.7009 33.8754C42.638 33.4253 42.4716 32.9959 42.2146 32.621C41.9577 32.2462 41.6173 31.936 41.2202 31.715Z" fill="#FFAE00"/>
<path d="M44.1558 33.6726C44.064 32.9964 43.8152 32.3511 43.4295 31.7883C43.0437 31.2254 42.5315 30.7606 41.934 30.4311L37.2251 27.8105C36.3824 27.3456 35.4113 27.1679 34.4586 27.3043C33.506 27.4406 32.6237 27.8837 31.9453 28.5663L30.2442 30.2962C30.2184 30.3177 27.5951 32.3501 21.1233 25.8771C14.7125 19.4661 16.6182 16.7995 16.6037 16.7978L18.2566 15.2329C19.0047 14.527 19.4957 13.5914 19.6515 12.5746C19.8073 11.5579 19.6191 10.5182 19.1167 9.62064L16.5694 5.05782C16.2341 4.4668 15.7673 3.96087 15.205 3.57918C14.6428 3.19749 14.0004 2.95028 13.3273 2.85667C12.6542 2.76307 11.9687 2.82559 11.3237 3.03939C10.6786 3.25319 10.0915 3.61254 9.60757 4.08962L6.00722 7.68982C4.42192 9.28496 3.38951 11.3461 3.06142 13.571C2.73333 15.7959 3.12683 18.0673 4.18421 20.0521C4.51982 21.0534 6.38028 25.7336 13.8229 33.1778C21.2655 40.622 25.9473 42.4808 26.9485 42.8164C28.9334 43.8735 31.2048 44.2667 33.4295 43.9386C35.6542 43.6105 37.7153 42.5782 39.3105 40.9931L42.9065 37.3972C43.3909 36.9169 43.7561 36.3299 43.9731 35.6831C44.19 35.0364 44.2526 34.3479 44.1558 33.6726ZM40.8295 35.3207L37.2337 38.9165C36.022 40.1018 34.4534 40.8547 32.7707 41.0587C31.0879 41.2627 29.3848 40.9065 27.9249 40.0452C27.8809 40.0324 23.4958 38.697 15.8995 31.1005C8.30332 23.504 6.96793 19.1196 6.95794 19.0881C6.09542 17.6264 5.73833 15.9214 5.94184 14.2365C6.14536 12.5516 6.89816 10.9806 8.08389 9.76634L11.6841 6.16644C11.8454 6.00734 12.0411 5.88751 12.2562 5.81622C12.4712 5.74493 12.6998 5.7241 12.9241 5.75535C13.1485 5.78659 13.3627 5.86907 13.5501 5.99639C13.7375 6.12371 13.893 6.29246 14.0047 6.48956L16.5528 11.0518C16.7363 11.3791 16.805 11.7584 16.7481 12.1293C16.6912 12.5001 16.512 12.8414 16.2388 13.0986L14.544 14.7035C14.1009 15.1555 10.4577 19.3665 19.0465 27.9539C27.6396 36.5512 31.8262 32.8651 32.2824 32.4089L34.0366 30.6289C34.2622 30.4004 34.5564 30.2522 34.8743 30.2069C35.1921 30.1615 35.5161 30.2216 35.7966 30.3779L40.5054 32.9984C40.7027 33.1101 40.8716 33.2657 40.9991 33.4532C41.1266 33.6407 41.2092 33.855 41.2405 34.0796C41.2719 34.3041 41.2511 34.5329 41.1798 34.7481C41.1086 34.9633 40.9887 35.1592 40.8295 35.3207Z" fill="#FEFBEA"/>
</svg>
