<svg width="46" height="46" viewBox="0 0 46 46" fill="none" xmlns="http://www.w3.org/2000/svg">
<path d="M42.9971 19.7654L34.0429 28.4939L36.1574 40.8219C36.2494 41.361 36.0281 41.9058 35.5853 42.2278C35.3352 42.4104 35.0376 42.5024 34.7401 42.5024C34.5115 42.5024 34.2815 42.4477 34.0716 42.3371L23 36.5166L11.9298 42.3356C11.4468 42.5915 10.8589 42.5498 10.4161 42.2264C9.97337 41.9044 9.752 41.3596 9.844 40.8205L11.9586 28.4925L3.00293 19.7654C2.61193 19.3831 2.46962 18.8109 2.63925 18.292C2.80887 17.7731 3.25881 17.3921 3.80075 17.3131L16.1762 15.5162L21.7106 4.30081C22.195 3.319 23.805 3.319 24.2894 4.30081L29.8238 15.5162L42.1992 17.3131C42.7412 17.3921 43.1911 17.7716 43.3607 18.292C43.5304 18.8124 43.3881 19.3816 42.9971 19.7654Z" fill="#FFAE00"/>
</svg>
