<svg width="47" height="47" viewBox="0 0 47 47" fill="none" xmlns="http://www.w3.org/2000/svg">
<g clip-path="url(#clip0_193_63)">
<path d="M43.2895 0H3.71053C2.72643 0 1.78265 0.390929 1.08679 1.08679C0.390929 1.78265 0 2.72643 0 3.71053L0 43.2895C0 44.2736 0.390929 45.2174 1.08679 45.9132C1.78265 46.6091 2.72643 47 3.71053 47H43.2895C44.2736 47 45.2174 46.6091 45.9132 45.9132C46.6091 45.2174 47 44.2736 47 43.2895V3.71053C47 2.72643 46.6091 1.78265 45.9132 1.08679C45.2174 0.390929 44.2736 0 43.2895 0Z" fill="#FFAE00"/>
<path fill-rule="evenodd" clip-rule="evenodd" d="M23.1908 32.0866H25.0027C25.3088 32.0513 25.5974 31.9253 25.8314 31.7248C25.9935 31.4888 26.0759 31.2071 26.0664 30.9209C26.0664 30.9209 26.0293 28.4874 27.161 28.138C28.2927 27.7886 29.7027 30.488 31.221 31.5393C32.365 32.3278 33.237 32.1577 33.237 32.1577L37.2908 32.1021C37.2908 32.1021 39.4119 31.9691 38.407 30.3025C38.3235 30.1664 37.8195 29.0656 35.3922 26.8146C32.8505 24.4553 33.1906 24.8387 36.2518 20.7571C38.1071 18.2834 38.8615 16.7559 38.6296 16.119C38.3977 15.482 37.0372 15.6613 37.0372 15.6613L32.4733 15.6923C32.2707 15.6679 32.0653 15.7034 31.8827 15.7943C31.7099 15.9222 31.5717 16.0912 31.4807 16.2859C31.0079 17.5114 30.4446 18.7 29.7955 19.8419C27.7609 23.2927 26.9508 23.4751 26.6168 23.2617C25.8438 22.7639 26.0386 21.255 26.0386 20.1696C26.0386 16.824 26.5457 15.4325 25.0491 15.0708C24.3531 14.8957 23.636 14.8187 22.9187 14.8419C21.2922 14.8419 19.9131 14.8419 19.1339 15.2315C18.6144 15.4851 18.2063 16.0509 18.4567 16.085C18.976 16.1305 19.4583 16.3727 19.8049 16.7621C20.2718 17.396 20.2564 18.8277 20.2564 18.8277C20.2564 18.8277 20.5223 22.7639 19.6379 23.2525C19.0195 23.5864 18.1785 22.9031 16.3665 19.7707C15.7479 18.6797 15.2004 17.5497 14.7277 16.388C14.6437 16.1916 14.5144 16.0178 14.3504 15.8809C14.2779 15.8279 14.2002 15.7823 14.1185 15.7448C13.8847 15.6428 13.6314 15.5932 13.3764 15.5995L9.31339 15.6273C9.31339 15.6273 8.66096 15.6273 8.42286 15.9365C8.18477 16.2458 8.40431 16.7096 8.40431 16.7096C8.40431 16.7096 11.8056 24.6532 15.646 28.6575C19.171 32.3247 23.1908 32.0866 23.1908 32.0866Z" fill="#FEFBEA"/>
</g>
<defs>
<clipPath id="clip0_193_63">
<rect width="47" height="47" fill="white"/>
</clipPath>
</defs>
</svg>
